<svg width="44" height="44" viewBox="0 0 44 44" fill="none" xmlns="http://www.w3.org/2000/svg">
<circle cx="21.7646" cy="21.7607" r="21.7676" fill="#4EAF4E"/>
<path d="M18.9053 21.9004H24.4222" stroke="#0D0D0D" stroke-linecap="round" stroke-linejoin="round"/>
<path d="M18.9053 24.6587H24.4222" stroke="#0D0D0D" stroke-linecap="round" stroke-linejoin="round"/>
<path d="M15.4572 14.3145H27.8704C28.0533 14.3145 28.2287 14.3871 28.358 14.5164C28.4873 14.6458 28.56 14.8212 28.56 15.0041V28.1069C28.56 28.6556 28.342 29.1818 27.954 29.5698C27.5661 29.9578 27.0398 30.1757 26.4911 30.1757H16.8364C16.2877 30.1757 15.7615 29.9578 15.3735 29.5698C14.9855 29.1818 14.7676 28.6556 14.7676 28.1069V15.0041C14.7676 14.8212 14.8402 14.6458 14.9696 14.5164C15.0989 14.3871 15.2743 14.3145 15.4572 14.3145V14.3145Z" stroke="#0D0D0D" stroke-linecap="round" stroke-linejoin="round"/>
<path d="M17.5254 12.9355V15.694" stroke="#0D0D0D" stroke-linecap="round" stroke-linejoin="round"/>
<path d="M21.6631 12.9355V15.694" stroke="#0D0D0D" stroke-linecap="round" stroke-linejoin="round"/>
<path d="M25.8008 12.9355V15.694" stroke="#0D0D0D" stroke-linecap="round" stroke-linejoin="round"/>
</svg>
